<?xml version='1.0' encoding='iso-8859-1'?>
<svg version="1.1" fill="rgb(255, 255, 255)" xmlns="http://www.w3.org/2000/svg" viewBox="0 0 59.994 59.994" xmlns:xlink="http://www.w3.org/1999/xlink" enable-background="new 0 0 59.994 59.994">
  <g>
    <g>
      <path d="m51.981,33.502c-0.552,0-1,0.448-1,1v19h-22v-15c0-0.552-0.448-1-1-1h-10c-0.552,0-1,0.448-1,1v15h-8v-19c0-0.552-0.448-1-1-1-0.552,0-1,0.448-1,1v20c0,0.552 0.448,1 1,1h10c0.552,0 1-0.448 1-1v-15h8v15c0,0.552 0.448,1 1,1h24c0.552,0 1-0.448 1-1v-20c0-0.552-0.447-1-1-1zm7.723,.291l-9.723-9.723v-11.568c0-0.552-0.448-1-1-1h-6c-0.552,0-1,0.448-1,1 0,0.552 0.448,1 1,1h5v8.568l-17.25-17.25c-0.011-0.012-0.015-0.029-0.027-0.041-0.195-0.195-0.451-0.291-0.707-0.289-0.256-0.002-0.512,0.094-0.707,0.289-0.012,0.012-0.016,0.028-0.027,0.041l-28.973,28.973c-0.387,0.387-0.387,1.014 8.32667e-16,1.401 0.387,0.387 1.014,0.387 1.401,0l28.306-28.306 18.186,18.186c0.064,0.089 0.138,0.164 0.227,0.227l9.893,9.893c0.387,0.387 1.014,0.387 1.401,0 0.387-0.387 0.387-1.014 0-1.401z"/>
    </g>
  </g>
  <g>
    <g>
      <path d="m41.981,37.502h-8c-0.552,0-1,0.448-1,1v8c0,0.552 0.448,1 1,1h8c0.552,0 1-0.448 1-1v-8c0-0.552-0.447-1-1-1zm-1,8h-6v-6h6v6z"/>
    </g>
  </g>
</svg>
